<?xml version="1.0" encoding="UTF-8" standalone="no"?>
<!DOCTYPE svg PUBLIC "-//W3C//DTD SVG 1.1//EN"
 "http://www.w3.org/Graphics/SVG/1.1/DTD/svg11.dtd">
<!-- Generated by graphviz version 2.43.0 (0)
 -->
<!-- Title: %3 Pages: 1 -->
<svg width="508pt" height="479pt"
 viewBox="0.00 0.00 507.86 479.00" xmlns="http://www.w3.org/2000/svg" xmlns:xlink="http://www.w3.org/1999/xlink">
<g id="graph0" class="graph" transform="scale(1 1) rotate(0) translate(4 475)">
<title>%3</title>
<polygon fill="#333333" stroke="transparent" points="-4,4 -4,-475 503.86,-475 503.86,4 -4,4"/>
<text text-anchor="middle" x="249.93" y="-9.2" font-family="Times,serif" font-size="16.00" fill="white">Network Map</text>
<!-- R2 -->
<g id="node1" class="node">
<title>R2</title>
<polygon fill="#006699" stroke="#006699" points="329.36,-347 252.36,-347 252.36,-274 329.36,-274 329.36,-347"/>
<text text-anchor="middle" x="290.86" y="-306.8" font-family="Helvetica,sans-Serif" font-size="14.00" fill="white">R2</text>
</g>
<!-- SW2 -->
<g id="node8" class="node">
<title>SW2</title>
<polygon fill="#006699" stroke="#006699" points="335.86,-471 245.86,-471 245.86,-398 335.86,-398 335.86,-471"/>
<text text-anchor="middle" x="290.86" y="-430.8" font-family="Helvetica,sans-Serif" font-size="14.00" fill="white">SW2</text>
</g>
<!-- R2&#45;&#45;SW2 -->
<g id="edge4" class="edge">
<title>R2&#45;&#45;SW2</title>
<path fill="none" stroke="green" stroke-dasharray="5,2" d="M290.86,-347.12C290.86,-363.01 290.86,-381.7 290.86,-397.63"/>
<text text-anchor="middle" x="340.86" y="-368.8" font-family="Courier,monospace" font-size="14.00" fill="white"> &#160;&#160;&#160;&#160;&#160;&#160;&#160;&#160;&#160;&#160;&#160;</text>
<text text-anchor="middle" x="261.86" y="-386.43" font-family="Courier,monospace" font-size="14.00" fill="white">Eth0/11</text>
<text text-anchor="middle" x="265.86" y="-350.92" font-family="Courier,monospace" font-size="14.00" fill="white">Eth0/1</text>
</g>
<!-- R6 -->
<g id="node2" class="node">
<title>R6</title>
<polygon fill="#006699" stroke="#006699" points="452.36,-347 375.36,-347 375.36,-274 452.36,-274 452.36,-347"/>
<text text-anchor="middle" x="413.86" y="-306.8" font-family="Helvetica,sans-Serif" font-size="14.00" fill="white">R6</text>
</g>
<!-- SW1 -->
<g id="node3" class="node">
<title>SW1</title>
<polygon fill="#006699" stroke="#006699" points="397.86,-223 307.86,-223 307.86,-150 397.86,-150 397.86,-223"/>
<text text-anchor="middle" x="352.86" y="-182.8" font-family="Helvetica,sans-Serif" font-size="14.00" fill="white">SW1</text>
</g>
<!-- SW1&#45;&#45;R2 -->
<g id="edge1" class="edge">
<title>SW1&#45;&#45;R2</title>
<path fill="none" stroke="green" stroke-dasharray="5,2" d="M307.69,-215.64C299.66,-222.86 292.42,-231.35 287.86,-241 283.14,-251.01 282.24,-262.79 283.01,-273.73"/>
<text text-anchor="middle" x="337.86" y="-244.8" font-family="Courier,monospace" font-size="14.00" fill="white"> &#160;&#160;&#160;&#160;&#160;&#160;&#160;&#160;&#160;&#160;&#160;</text>
<text text-anchor="middle" x="258.01" y="-262.53" font-family="Courier,monospace" font-size="14.00" fill="white">Eth0/0</text>
<text text-anchor="middle" x="282.69" y="-204.44" font-family="Courier,monospace" font-size="14.00" fill="white">Eth0/2</text>
</g>
<!-- SW1&#45;&#45;R6 -->
<g id="edge2" class="edge">
<title>SW1&#45;&#45;R6</title>
<path fill="none" stroke="green" stroke-dasharray="5,2" d="M381.14,-223.05C385.06,-228.85 388.79,-234.95 391.86,-241 397.07,-251.24 401.37,-262.97 404.75,-273.79"/>
<text text-anchor="middle" x="448.86" y="-244.8" font-family="Courier,monospace" font-size="14.00" fill="white"> &#160;&#160;&#160;&#160;&#160;&#160;&#160;&#160;&#160;&#160;&#160;</text>
<text text-anchor="middle" x="379.75" y="-262.59" font-family="Courier,monospace" font-size="14.00" fill="white">Eth0/1</text>
<text text-anchor="middle" x="356.14" y="-226.85" font-family="Courier,monospace" font-size="14.00" fill="white">Eth0/5</text>
</g>
<!-- R5 -->
<g id="node4" class="node">
<title>R5</title>
<polygon fill="#006699" stroke="#006699" points="84.36,-223 7.36,-223 7.36,-150 84.36,-150 84.36,-223"/>
<text text-anchor="middle" x="45.86" y="-182.8" font-family="Helvetica,sans-Serif" font-size="14.00" fill="white">R5</text>
</g>
<!-- R4 -->
<g id="node5" class="node">
<title>R4</title>
<polygon fill="#006699" stroke="#006699" points="207.36,-223 130.36,-223 130.36,-150 207.36,-150 207.36,-223"/>
<text text-anchor="middle" x="168.86" y="-182.8" font-family="Helvetica,sans-Serif" font-size="14.00" fill="white">R4</text>
</g>
<!-- R3 -->
<g id="node6" class="node">
<title>R3</title>
<polygon fill="#006699" stroke="#006699" points="207.36,-99 130.36,-99 130.36,-26 207.36,-26 207.36,-99"/>
<text text-anchor="middle" x="168.86" y="-58.8" font-family="Helvetica,sans-Serif" font-size="14.00" fill="white">R3</text>
</g>
<!-- R3&#45;&#45;SW1 -->
<g id="edge5" class="edge">
<title>R3&#45;&#45;SW1</title>
<path fill="none" stroke="green" stroke-dasharray="5,2" d="M207.8,-81.8C227.02,-91.41 250.22,-103.89 269.86,-117 274.45,-120.06 292.44,-134.85 310.5,-149.91"/>
<text text-anchor="middle" x="338.86" y="-120.8" font-family="Courier,monospace" font-size="14.00" fill="white"> &#160;&#160;&#160;&#160;&#160;&#160;&#160;&#160;&#160;&#160;&#160;</text>
<text text-anchor="middle" x="285.5" y="-138.71" font-family="Courier,monospace" font-size="14.00" fill="white">Eth0/3</text>
<text text-anchor="middle" x="232.8" y="-70.6" font-family="Courier,monospace" font-size="14.00" fill="white">Eth0/0</text>
</g>
<!-- R3&#45;&#45;R5 -->
<g id="edge7" class="edge">
<title>R3&#45;&#45;R5</title>
<path fill="none" stroke="green" stroke-dasharray="5,2" d="M130.19,-74.74C108.08,-83.05 81.52,-96.53 64.86,-117 57.3,-126.28 52.75,-138.37 50,-149.8"/>
<text text-anchor="middle" x="114.86" y="-120.8" font-family="Courier,monospace" font-size="14.00" fill="white"> &#160;&#160;&#160;&#160;&#160;&#160;&#160;&#160;&#160;&#160;&#160;</text>
<text text-anchor="middle" x="25" y="-138.6" font-family="Courier,monospace" font-size="14.00" fill="white">Eth0/0</text>
<text text-anchor="middle" x="105.19" y="-63.54" font-family="Courier,monospace" font-size="14.00" fill="white">Eth0/2</text>
</g>
<!-- R3&#45;&#45;R4 -->
<g id="edge6" class="edge">
<title>R3&#45;&#45;R4</title>
<path fill="none" stroke="green" stroke-dasharray="5,2" d="M168.86,-99.12C168.86,-115.01 168.86,-133.7 168.86,-149.63"/>
<text text-anchor="middle" x="218.86" y="-120.8" font-family="Courier,monospace" font-size="14.00" fill="white"> &#160;&#160;&#160;&#160;&#160;&#160;&#160;&#160;&#160;&#160;&#160;</text>
<text text-anchor="middle" x="143.86" y="-138.43" font-family="Courier,monospace" font-size="14.00" fill="white">Eth0/0</text>
<text text-anchor="middle" x="143.86" y="-102.92" font-family="Courier,monospace" font-size="14.00" fill="white">Eth0/1</text>
</g>
<!-- R1 -->
<g id="node7" class="node">
<title>R1</title>
<polygon fill="#006699" stroke="#006699" points="453.36,-99 376.36,-99 376.36,-26 453.36,-26 453.36,-99"/>
<text text-anchor="middle" x="414.86" y="-58.8" font-family="Helvetica,sans-Serif" font-size="14.00" fill="white">R1</text>
</g>
<!-- R1&#45;&#45;SW1 -->
<g id="edge3" class="edge">
<title>R1&#45;&#45;SW1</title>
<path fill="none" stroke="green" stroke-dasharray="5,2" d="M405.83,-99.25C402.45,-110.07 398.13,-121.79 392.86,-132 389.78,-137.98 386.04,-143.99 382.1,-149.72"/>
<text text-anchor="middle" x="449.86" y="-120.8" font-family="Courier,monospace" font-size="14.00" fill="white"> &#160;&#160;&#160;&#160;&#160;&#160;&#160;&#160;&#160;&#160;&#160;</text>
<text text-anchor="middle" x="357.1" y="-138.52" font-family="Courier,monospace" font-size="14.00" fill="white">Eth0/1</text>
<text text-anchor="middle" x="380.83" y="-103.05" font-family="Courier,monospace" font-size="14.00" fill="white">Eth0/0</text>
</g>
</g>
</svg>
